<svg width="161" height="160" viewBox="0 0 161 160" fill="none" xmlns="http://www.w3.org/2000/svg">
<path d="M80.5 20.6401C47.7 20.6401 21.14 47.2001 21.14 80.0001C21.14 112.8 47.7 139.36 80.5 139.36C113.3 139.36 139.86 112.8 139.86 80.0001C139.86 47.2001 113.3 20.6401 80.5 20.6401ZM136.02 80.0001C136.02 110.72 111.22 135.52 80.5 135.52C49.78 135.52 24.98 110.72 24.98 80.0001C24.98 49.2801 49.78 24.4801 80.5 24.4801C111.22 24.4801 136.02 49.2801 136.02 80.0001Z" fill="#6F6F6F"/>
<path d="M80.5 44.8003V46.7203C98.9 46.7203 113.78 61.6003 113.78 80.0003H115.7C115.7 60.4803 99.86 44.8003 80.5 44.8003ZM80.5 113.28C62.1 113.28 47.22 98.4003 47.22 80.0003H45.3C45.3 99.5203 61.14 115.2 80.5 115.2" fill="#6F6F6F"/>
<path d="M108.98 54.8801C109.78 55.6801 110.9 57.1201 111.54 57.9201L123.54 50.4001C122.9 49.6001 121.94 48.4801 121.3 47.5201L113.62 52.4801L113.14 52.9601L113.46 52.3201L116.82 45.6001L114.42 43.2001L107.7 46.5601L107.06 46.8801L107.54 46.4001L112.5 38.8801C111.54 38.0801 110.74 37.4401 109.62 36.6401L101.94 48.6401C102.9 49.4401 104.18 50.4001 104.98 51.2001L112.18 47.5201L112.66 47.2001L112.34 47.6801L108.66 54.8801H108.98Z" fill="#6F6F6F"/>
<path d="M81.62 39.84L84.98 32.48V31.84C85.14 31.84 84.98 32.48 84.98 32.48L85.3 42.24C86.42 42.24 87.7 42.56 88.82 42.72L88.34 28.32C86.74 28.16 85.14 28 83.38 28L80.18 36V36.64L80.02 36L76.82 28C75.22 28 73.62 28.16 71.86 28.32L71.38 42.72C72.5 42.56 73.78 42.4 74.9 42.24L75.22 32.48L78.58 39.84H81.62Z" fill="#6F6F6F"/>
<path d="M55.06 51.3602C56.98 49.4402 58.1 47.0402 56.18 44.9602C55.22 43.8402 53.46 43.5202 52.02 44.1602C52.18 43.5202 52.34 41.7602 50.9 40.4802C50.1 39.8402 49.14 39.6802 48.18 39.6802C46.42 39.8402 44.98 41.1202 41.3 45.2802C40.18 46.5602 38.58 48.4802 37.62 49.7602L47.86 59.3602C51.22 55.6802 52.66 54.2402 55.38 51.3602H55.06ZM41.78 48.9602C43.86 46.4002 46.1 44.1602 47.06 43.2002C47.38 42.8802 47.7 42.5602 48.18 42.5602C48.82 42.4002 49.62 42.8802 49.78 43.5202C49.78 44.1602 49.46 44.8002 48.98 45.4402C47.86 46.7202 43.86 50.8802 43.86 50.8802L41.94 48.9602H41.78ZM45.78 52.8002C45.78 52.8002 49.62 48.6402 50.9 47.3602C51.38 46.8802 51.7 46.5602 52.02 46.4002C52.5 46.2402 52.98 46.0802 53.46 46.4002C53.94 46.7202 54.1 47.2002 53.94 47.6802C53.94 48.3202 53.3 48.8002 52.98 49.2802C52.5 49.9202 47.86 54.7202 47.86 54.7202L45.78 52.8002Z" fill="#6F6F6F"/>
<path d="M80.5 44.8003V80.0003H45.3C45.3 60.4803 60.98 44.8003 80.5 44.8003Z" fill="#8B8B8B"/>
<path d="M115.7 80C115.7 99.52 100.02 115.2 80.5 115.2V80H115.7Z" fill="#8B8B8B"/>
</svg>
