<svg width="161" height="160" viewBox="0 0 161 160" fill="none" xmlns="http://www.w3.org/2000/svg">
<path d="M136.82 16.6401H118.42V32.0001H136.82V16.6401Z" fill="white"/>
<path fill-rule="evenodd" clip-rule="evenodd" d="M122.74 16.8001C120.34 18.2401 117.78 21.1201 119.7 24.1601C122.58 28.8001 128.66 22.8801 129.94 24.9601C130.42 25.7601 129.94 26.5601 129.14 26.8801C128.66 27.2001 128.18 27.2001 127.86 27.2001C127.38 27.2001 127.06 26.8801 127.06 26.8801L122.74 29.6001C124.66 32.3201 128.02 31.3601 130.74 29.6001C134.9 27.0401 135.86 24.0001 134.26 21.4401C131.38 16.9601 124.82 22.5601 123.86 20.8001C123.54 20.1601 123.86 19.6801 124.66 19.2001C124.98 19.0401 125.46 18.8801 125.78 18.8801C126.1 18.8801 126.42 19.2001 126.42 19.2001L130.58 16.6401H143.86V62.7201H85.62C76.18 62.7201 68.5 70.5601 68.5 80.0001C68.5 89.4401 76.18 97.1201 85.62 97.1201H143.86V143.2H80.66C45.62 143.2 17.3 115.04 17.3 80.0001C17.3 44.9601 45.6201 16.6401 80.5 16.6401H122.58L122.74 16.8001Z" fill="#8B8B8B"/>
<path fill-rule="evenodd" clip-rule="evenodd" d="M56.6601 74.8801L52.3401 77.4401L51.2201 76.6401C50.9001 78.4001 50.2601 79.2001 48.3401 80.4801C45.7801 82.0801 43.2201 81.4401 40.9801 77.9201L36.3401 70.5601L40.9801 67.6801L44.9801 74.2401C45.9401 75.8401 46.9001 76.1601 48.0201 75.3601C49.3001 74.5601 49.1401 73.2801 48.0201 71.3601L44.3401 65.4401L48.9801 62.5601L56.5001 74.7201L56.6601 74.8801Z" fill="white"/>
<path fill-rule="evenodd" clip-rule="evenodd" d="M51.22 61.4402L55.38 58.8802L56.5 59.6802C56.5 58.4002 57.46 57.1202 58.9 56.1602C60.98 54.8802 62.74 55.0402 64.02 56.1602C64.02 54.0802 64.98 52.4802 66.58 51.5202C69.94 49.4402 72.18 50.7202 74.26 54.0802L78.74 61.2802L74.1 64.1602L70.26 57.9202C69.14 56.1602 68.34 55.6802 67.22 56.3202C65.94 57.1202 66.42 58.5602 67.22 60.0002L70.9 66.0802L66.26 68.9602L62.42 62.7202C61.3 60.9602 60.5 60.4802 59.38 61.1202C58.1 61.9202 58.58 63.3602 59.38 64.8002L63.06 70.8802L58.42 73.7602L50.9 61.6002L51.22 61.4402Z" fill="white"/>
<path fill-rule="evenodd" clip-rule="evenodd" d="M103.22 46.08L95.7001 33.92L100.34 31.04L107.86 43.2L103.22 46.08Z" fill="white"/>
<path fill-rule="evenodd" clip-rule="evenodd" d="M92.66 28.9601L97.14 26.0801L99.38 29.6001L94.74 32.3201L92.66 28.9601Z" fill="white"/>
<path fill-rule="evenodd" clip-rule="evenodd" d="M102.74 29.6004L106.9 27.0404L108.18 28.0004C108.18 26.7204 108.82 25.4404 110.58 24.3204C113.62 22.4004 116.18 23.3604 118.26 26.7204L122.74 34.0804L118.1 36.9604L114.1 30.5604C113.3 29.2804 112.34 28.4804 111.06 29.2804C109.62 30.0804 109.94 31.3604 110.9 32.9604L114.74 39.2004L110.1 42.0804L102.58 29.9204L102.74 29.6004Z" fill="white"/>
<path fill-rule="evenodd" clip-rule="evenodd" d="M73.3001 47.8401L77.4601 45.2801L78.5801 46.0801C78.5801 44.8001 79.5401 43.5201 80.9801 42.5601C83.0601 41.2801 84.8201 41.4401 86.1001 42.5601C86.1001 40.4801 87.0601 38.8801 88.6601 37.9201C92.0201 35.8401 94.2601 37.1201 96.3401 40.4801L100.82 47.6801L96.1801 50.5601L92.3401 44.3201C91.2201 42.5601 90.4201 42.0801 89.3001 42.7201C88.0201 43.5201 88.5001 44.9601 89.3001 46.4001L92.9801 52.4801L88.3401 55.3601L84.5001 49.1201C83.3801 47.3601 82.5801 46.8801 81.4601 47.5201C80.1801 48.3201 80.6601 49.7601 81.4601 51.2001L85.1401 57.2801L80.5001 60.1601L72.9801 48.0001L73.3001 47.8401Z" fill="white"/>
<path fill-rule="evenodd" clip-rule="evenodd" d="M36.3401 87.5199C31.3801 90.5599 24.9801 89.1199 21.7801 84.1599C18.7401 79.1999 20.1801 72.7999 25.1401 69.5999L31.0601 65.9199L33.9401 70.5599L28.8201 73.7599C26.4201 75.1999 25.7801 78.3999 27.2201 80.6399C28.6601 83.0399 31.8601 83.6799 34.1001 82.2399L39.2201 79.0399L42.1001 83.6799L36.1801 87.3599L36.3401 87.5199Z" fill="white"/>
</svg>
