<svg width="161" height="160" viewBox="0 0 161 160" fill="none" xmlns="http://www.w3.org/2000/svg">
<path d="M26.26 80C26.26 65.76 26.26 51.52 26.26 37.28C26.26 31.36 28.5 26.56 32.98 23.2C35.38 21.44 38.1 20.48 40.98 20.48C67.22 20.48 93.62 20.48 119.86 20.48C126.9 20.48 133.3 26.56 134.42 34.4C134.42 35.36 134.58 36.32 134.58 37.44C134.58 65.92 134.58 94.4 134.58 122.88C134.58 130.08 131.38 135.2 125.62 138.24C123.86 139.2 121.94 139.52 119.86 139.68C119.38 139.68 119.06 139.68 118.58 139.68H41.62C36.5 139.68 32.34 137.44 29.3 132.96C27.22 130.08 26.42 126.72 26.42 123.04C26.42 108.8 26.42 94.56 26.42 80.32L26.26 80ZM80.5 28.16H41.62C40.02 28.16 38.42 28.48 36.98 29.6C34.42 31.52 33.14 34.08 33.14 37.44V123.2C33.14 124.8 33.62 126.24 34.26 127.52C35.86 130.4 38.26 131.84 41.46 131.84C67.22 131.84 92.98 131.84 118.74 131.84C119.06 131.84 119.54 131.84 119.86 131.84C121.78 131.84 123.38 131.04 124.82 129.76C126.9 127.84 127.7 125.28 127.7 122.4C127.7 94.24 127.7 66.24 127.7 38.08C127.7 37.6 127.7 36.96 127.7 36.48C127.7 34.56 126.9 32.64 125.62 31.2C123.86 29.12 121.78 28.16 119.22 28.16C106.26 28.16 93.3 28.16 80.34 28.16H80.5Z" fill="#8B8B8B"/>
<path d="M106.74 92.6399V62.7199C106.74 61.4399 106.42 60.3199 105.46 59.5199C105.14 59.1999 104.66 59.0399 104.34 59.0399C102.58 59.0399 100.98 59.0399 99.2201 59.0399V92.6399H91.3801V59.0399H83.7001V92.6399H75.8601V51.3599H106.1C110.9 51.3599 114.74 55.5199 114.74 60.7999C114.74 71.1999 114.74 81.5999 114.74 91.9999C114.74 102.4 114.74 92.6399 114.1 92.6399C111.86 92.6399 109.62 92.6399 107.38 92.6399H106.74Z" fill="#8B8B8B"/>
<path d="M51.0599 101.12C52.0199 101.12 52.9799 101.12 54.0999 101.12C55.2199 101.12 56.3399 101.12 57.4599 100.64C60.3399 99.84 61.7799 97.92 61.9399 94.56C61.9399 93.92 61.9399 93.28 61.9399 92.64H61.2999C59.2199 92.64 56.9799 92.64 54.8999 92.64C50.2599 92.64 46.5799 88.64 46.4199 83.52C46.4199 75.84 46.4199 68.32 46.4199 60.64C46.4199 55.52 50.2599 51.52 54.8999 51.52C59.6999 51.52 64.3399 51.52 69.1399 51.52C69.6199 51.52 69.7799 51.52 69.7799 52.16C69.7799 64.16 69.7799 76.16 69.7799 88C69.7799 90.56 69.7799 92.96 69.7799 95.52C69.4599 101.6 66.5799 105.92 61.1399 107.84C59.0599 108.64 56.8199 108.8 54.5799 108.8H51.3799C51.0599 108.8 50.8999 108.8 50.8999 108.48C50.8999 106.08 50.8999 103.84 50.8999 101.44C50.8999 101.44 50.8999 101.44 50.8999 101.28L51.0599 101.12ZM61.7799 58.88C61.6199 58.88 61.4599 58.88 61.2999 58.88H57.4599C55.5399 58.88 54.2599 60.16 54.2599 62.4V71.2C54.2599 74.72 54.2599 78.24 54.2599 81.6C54.2599 83.36 55.5399 84.8 57.1399 84.96C58.5799 84.96 60.0199 84.96 61.6199 84.96C61.6199 84.96 61.7799 84.96 61.9399 84.96V58.88H61.7799Z" fill="#8B8B8B"/>
<path d="M75.8599 108.64V101.12H114.58C114.58 101.28 114.58 101.44 114.58 101.6C114.58 103.84 114.58 105.92 114.58 108.16C114.58 108.64 114.58 108.8 114.1 108.8C101.46 108.8 88.82 108.8 76.1799 108.8C76.1799 108.8 75.86 108.8 75.7 108.8L75.8599 108.64Z" fill="#8B8B8B"/>
</svg>
