<svg width="161" height="160" viewBox="0 0 161 160" fill="none" xmlns="http://www.w3.org/2000/svg">
<g clip-path="url(#clip0_4405_2338)">
<path fill-rule="evenodd" clip-rule="evenodd" d="M133.14 80.3198H139.7L136.34 75.1998L133.14 80.3198ZM122.42 88.3198V86.0798H124.66C125.46 85.7598 125.78 84.9598 125.78 84.9598L131.38 75.8398C131.86 75.1998 131.38 74.5598 130.74 74.3998L127.86 74.0798V71.8398H140.66C141.46 71.8398 141.78 72.3198 142.1 72.7998L149.62 84.1598C150.26 85.1198 150.74 85.7598 151.38 85.9198H153.78V88.4798H139.38V86.2398H141.14C142.1 85.9198 142.74 85.4398 142.1 84.4798L141.46 83.3598H131.22L130.42 84.6398C129.94 85.4398 130.42 85.9198 131.22 85.9198H133.14V88.3198H122.42Z" fill="#8B8B8B"/>
<path fill-rule="evenodd" clip-rule="evenodd" d="M110.42 85.1202H106.1V74.8802H110.42C114.58 74.8802 116.18 75.8402 116.18 80.0002C116.18 84.1602 114.58 85.1202 110.42 85.1202ZM112.98 71.6802H96.5V73.9202H98.58C99.38 74.2402 99.7 74.7202 99.7 75.5202V84.4802C99.7 85.1202 99.38 85.7602 98.74 85.7602L96.5 86.0802V88.3202H112.98C120.66 88.3202 123.86 84.6402 123.86 79.6802C123.86 74.7202 120.5 71.6802 112.98 71.6802Z" fill="#8B8B8B"/>
<path fill-rule="evenodd" clip-rule="evenodd" d="M7.06006 88.3202H20.5001V86.0802H18.2601C17.7801 85.7602 17.1401 85.4402 17.1401 84.3202V81.6002H27.3801V84.1602C27.3801 84.9602 27.3801 85.6002 26.2601 85.7602H24.0201V88.3202H37.4601V86.0802H35.0601C34.5801 85.7602 34.1001 85.4402 34.1001 84.4802V75.8402C34.1001 74.8802 34.4201 74.4002 35.2201 74.2402H37.4601V71.6802H24.0201V73.9202L26.2601 74.2402C27.0601 74.2402 27.3801 75.0402 27.3801 75.8402V78.4002H17.1401V75.8402C17.1401 74.8802 17.6201 74.4002 18.2601 74.4002H20.5001V71.8402H7.06006V74.0802H9.30006C10.1001 74.4002 10.4201 75.0402 10.4201 75.8402V84.3202C10.4201 85.2802 10.2601 85.9202 9.30006 85.9202H7.06006V88.3202Z" fill="#8B8B8B"/>
<path fill-rule="evenodd" clip-rule="evenodd" d="M51.5399 74.24C47.6999 74.24 45.6199 75.68 45.6199 80C45.6199 84.32 47.8599 85.76 51.5399 85.76C55.2199 85.76 57.4599 84.32 57.4599 80C57.4599 75.68 55.2199 74.24 51.5399 74.24ZM37.9399 80C37.9399 74.72 42.2599 71.04 51.5399 71.04C60.8199 71.04 65.1399 74.72 65.1399 80C65.1399 85.28 60.8199 88.96 51.5399 88.96C42.2599 88.96 37.9399 85.28 37.9399 80Z" fill="#8B8B8B"/>
<path fill-rule="evenodd" clip-rule="evenodd" d="M65.9401 88.3202H76.5001V86.0802H74.2601C73.6201 85.7602 73.1401 85.2802 73.1401 84.4802V76.0002L81.9401 87.6802C82.2601 88.1602 82.9001 88.3202 83.3801 88.3202H91.7001V75.6802C91.7001 75.0402 91.7001 74.2402 92.6601 74.2402H94.9001V71.6802H84.3401V73.9202L86.5801 74.2402C87.3801 74.2402 87.5401 75.0402 87.5401 75.8402V84.0002L78.7401 72.4802C78.4201 72.0002 77.9401 71.6802 77.3001 71.6802H65.6201V73.9202H67.8601C68.6601 74.2402 68.9801 74.7202 68.9801 75.6802V84.1602C68.9801 85.2802 68.6601 85.6002 67.8601 85.7602H65.6201V88.1602L65.9401 88.3202Z" fill="#8B8B8B"/>
</g>
<defs>
<clipPath id="clip0_4405_2338">
<rect width="160" height="160" fill="white" transform="translate(0.5)"/>
</clipPath>
</defs>
</svg>
