<svg width="160" height="160" viewBox="0 0 160 160" fill="none" xmlns="http://www.w3.org/2000/svg">
<g clip-path="url(#clip0_1404_5517)">
<path d="M147.072 71C144.879 71 142.849 71.7474 141.429 73.1436C140.065 74.4775 139.221 76.32 139.221 78.8425V88.6212H142.126V79.2214C142.126 77.3113 142.682 75.9983 143.531 75.1471C144.439 74.2336 145.698 73.8287 147.03 73.8287C148.934 73.8287 150.455 74.7008 151.646 76.2527L154 74.6748C152.474 72.3184 149.857 71 147.072 71Z" fill="#4C4A4D"/>
<path d="M119.987 71C114.969 71 110.874 75.0508 110.874 80.0466C110.874 85.0425 114.869 88.9947 119.892 88.9947C122.462 88.9947 124.964 87.6765 126.176 86.0052V88.6212H129.082V80.0207C129.082 77.3373 128.101 75.2146 126.532 73.6627C124.843 71.9914 122.462 71 119.987 71ZM120.034 73.8287C123.438 73.8287 126.202 76.4653 126.202 79.9999C126.202 83.5345 123.438 86.1713 120.034 86.1713C116.63 86.1713 113.845 83.5345 113.845 79.9999C113.845 76.4653 116.63 73.8287 120.034 73.8287Z" fill="#4C4A4D"/>
<path d="M85.6846 71.3789V81.2198C85.6846 83.3634 86.4713 85.2008 87.7563 86.5451C89.2354 88.097 91.3753 89.0001 93.7094 89.0001C96.0434 89.0001 98.1837 88.1021 99.6625 86.5502C100.948 85.2007 101.734 83.3685 101.734 81.2249V71.3789H98.8285V80.846C98.8285 82.59 98.2728 83.7838 97.4227 84.661C96.4419 85.673 95.0678 86.1713 93.7094 86.1713C92.3509 86.1713 90.9767 85.6679 89.9959 84.661C89.141 83.789 88.5903 82.59 88.5903 80.846V71.3789H85.6846Z" fill="#4C4A4D"/>
<path d="M58.2852 80C58.2852 75.0069 62.2607 71 67.4271 71C70.7838 71 73.4272 72.365 75.0427 74.7007L72.6406 76.2785C71.4237 74.6747 69.6195 73.8287 67.4271 73.8287C64.0965 73.8287 61.259 76.1592 61.259 80C61.259 83.5554 63.829 86.1713 67.4743 86.1713C70.5426 86.1713 72.9028 84.3079 73.4955 81.5779H69.567V78.8218H76.4483C76.4955 79.1747 76.5427 79.5744 76.5427 80C76.5427 84.9204 72.5671 89 67.4271 89C62.287 89 58.2852 85.019 58.2852 80Z" fill="#4C4A4D"/>
<path d="M40.0426 71C35.0232 71 30.9268 75.0536 30.9268 80.0467C30.9267 85.0398 34.9235 88.9947 39.9482 88.9947C42.5182 88.9947 45.0147 87.6765 46.2315 86.0052V88.6212H49.1373V80.0207C49.1373 77.3373 48.1617 75.2146 46.5882 73.6627C44.8993 71.9914 42.5182 71 40.0426 71ZM40.1001 73.8287C43.5041 73.8287 46.2682 76.4653 46.2682 79.9999C46.2682 83.5345 43.5041 86.1713 40.1001 86.1713C36.6962 86.1713 33.9112 83.5345 33.9112 79.9999C33.9112 76.4653 36.6962 73.8287 40.1001 73.8287Z" fill="#4C4A4D"/>
<path d="M18.8798 71.3789V80.7734C18.8798 82.6834 18.3238 83.9966 17.4741 84.8479C16.5667 85.7614 15.3081 86.166 13.9759 86.166C12.0719 86.166 10.5508 85.2994 9.3602 83.7423L7 85.3202C8.52628 87.6765 11.1436 88.9948 13.9286 88.9948C16.121 88.9948 18.1507 88.2475 19.5721 86.8513C20.9358 85.5173 21.7855 83.6747 21.7855 81.1523V71.3789H18.8798Z" fill="#4C4A4D"/>
</g>
<defs>
<clipPath id="clip0_1404_5517">
<rect width="147" height="18" fill="white" transform="translate(7 71)"/>
</clipPath>
</defs>
</svg>
