<svg width="160" height="160" viewBox="0 0 160 160" fill="none" xmlns="http://www.w3.org/2000/svg">
<path d="M80.36 21C113.122 21 139.72 47.5982 139.72 80.36C139.72 113.122 113.122 139.72 80.36 139.72C47.5982 139.72 21 113.122 21 80.36C21 47.5982 47.5982 21 80.36 21ZM37.0519 107.76C41.6725 115.066 48.0667 121.083 55.639 125.253C63.2113 129.423 71.7155 131.609 80.36 131.607C98.5687 131.607 114.576 122.09 123.668 107.76L80.36 91.2575L37.0519 107.76ZM89.7982 74.9088L125.746 104.168C129.607 96.8273 131.62 88.6548 131.607 80.36C131.607 52.7724 109.758 30.2453 82.4376 29.1521L89.7982 74.9088ZM78.2824 29.1521C50.962 30.2453 29.1125 52.7724 29.1125 80.36C29.1125 88.9524 31.2297 97.0501 34.9743 104.168L70.9218 74.9088L78.2824 29.1521Z" fill="#8B8B8B"/>
</svg>
