<svg width="161" height="160" viewBox="0 0 161 160" fill="none" xmlns="http://www.w3.org/2000/svg">
<g clip-path="url(#clip0_4405_2241)">
<path fill-rule="evenodd" clip-rule="evenodd" d="M19.06 80V74.08H21.78C23.38 74.08 24.66 75.36 24.66 76.96C24.66 78.56 23.38 79.84 21.78 79.84H19.06V80ZM11.7 68.48V91.36H19.06V85.76H23.7C28.34 85.76 32.02 81.92 32.02 77.12C32.02 72.32 28.34 68.48 23.7 68.48H11.7Z" fill="#8B8B8B"/>
<path fill-rule="evenodd" clip-rule="evenodd" d="M38.74 68.48L26.58 91.36H34.74L37.62 85.76H44.5V91.36H51.7V68.48H38.58H38.74ZM44.66 80H40.82L44.66 72.8V80Z" fill="#8B8B8B"/>
<path fill-rule="evenodd" clip-rule="evenodd" d="M94.26 68.48L87.06 82.08C86.26 83.52 84.82 84.48 83.06 84.48C80.5 84.48 78.58 82.4 78.58 79.84C78.58 77.28 80.66 75.2 83.06 75.2C85.46 75.2 86.58 76.48 87.22 78.24L91.06 70.88C88.98 68.8 86.1 67.52 83.06 67.52C80.02 67.52 75.86 69.44 73.78 72.32C73.46 72.8 72.98 73.44 72.66 73.92L68.34 82.08C67.54 83.52 66.1 84.48 64.34 84.48C61.78 84.48 59.86 82.4 59.86 79.84C59.86 77.28 61.94 75.2 64.34 75.2C66.74 75.2 67.86 76.48 68.5 78.24L72.34 70.88C70.26 68.8 67.38 67.52 64.34 67.52C57.78 67.52 52.5 72.96 52.5 79.84C52.5 86.72 57.78 92.16 64.34 92.16C70.9 92.16 71.54 90.24 73.62 87.36C75.7 90.24 79.06 92.16 82.9 92.16C86.74 92.16 91.38 89.6 93.3 85.6H100.02V91.2H107.22V68.32H94.1L94.26 68.48ZM100.18 80H96.34L100.18 72.8V80Z" fill="#8B8B8B"/>
<path fill-rule="evenodd" clip-rule="evenodd" d="M116.98 80.0001V74.0801H119.7C121.3 74.0801 122.58 75.3601 122.58 76.9601C122.58 78.5601 121.3 79.8401 119.7 79.8401H116.98V80.0001ZM130.42 91.3601L126.1 83.3601C128.02 81.9201 129.3 79.5201 129.3 76.8001C129.3 72.3201 125.78 68.6401 121.46 68.6401H109.46V91.5201H116.82V85.9201H119.22L122.1 91.5201H130.26L130.42 91.3601Z" fill="#8B8B8B"/>
<path d="M138.26 85.28H139.22C139.22 85.6 139.22 85.76 139.22 86.08C139.22 86.08 139.38 85.92 139.38 85.76C139.7 85.28 140.18 85.12 140.82 84.96C141.46 84.96 141.94 84.96 142.42 85.44C142.9 85.76 143.06 86.24 143.06 86.88C143.06 88 143.06 89.12 143.06 90.24C143.06 90.56 143.06 90.88 143.06 91.2C142.74 91.2 142.42 91.2 142.1 91.2V90.88C142.1 89.6 142.1 88.32 142.1 87.2C142.1 87.04 142.1 86.88 142.1 86.72C142.1 86.4 141.78 86.08 141.46 86.08C141.14 86.08 140.82 86.08 140.66 86.08C140.18 86.08 139.86 86.56 139.7 87.04C139.7 87.36 139.7 87.52 139.7 87.84C139.7 88.96 139.7 89.92 139.7 91.04C139.7 91.04 139.7 91.2 139.7 91.36C139.38 91.36 139.06 91.36 138.74 91.36C138.74 91.04 138.74 85.92 138.74 85.28H138.26Z" fill="#8B8B8B"/>
<path d="M148.34 89.1198H149.3C149.3 90.0798 148.66 90.8798 147.86 91.1998C147.38 91.3598 147.06 91.3598 146.58 91.1998C146.1 91.1998 145.78 91.1998 145.46 90.8798C144.82 90.5598 144.5 89.9198 144.34 89.2798C144.02 88.1598 144.18 87.0398 144.66 86.0798C145.14 85.2798 145.78 84.9598 146.58 84.7998C147.06 84.7998 147.38 84.7998 147.7 84.7998C148.34 84.9598 148.66 85.4398 148.98 85.9198C148.98 86.2398 149.14 86.7198 149.14 86.8798C148.82 86.8798 148.5 86.8798 148.18 86.8798C148.18 86.7198 148.18 86.5598 148.18 86.3998C148.02 85.9198 147.54 85.5998 147.06 85.5998C146.9 85.5998 146.74 85.5998 146.42 85.5998C145.94 85.5998 145.62 86.0798 145.46 86.5598C145.46 86.8798 145.46 87.1998 145.3 87.3598C145.3 87.8398 145.3 88.3198 145.3 88.7998C145.3 89.2798 145.62 89.5998 145.94 89.7598C146.58 90.2398 147.54 90.0798 147.86 89.2798C147.86 89.2798 147.86 88.9598 148.02 88.7998C148.02 88.7998 148.02 88.7998 148.02 88.6398L148.34 89.1198Z" fill="#8B8B8B"/>
<path d="M136.18 91.3599H135.06V82.8799H136.18C136.18 83.1999 136.18 90.3999 136.18 91.3599Z" fill="#8B8B8B"/>
</g>
<defs>
<clipPath id="clip0_4405_2241">
<rect width="160" height="160" fill="white" transform="translate(0.5)"/>
</clipPath>
</defs>
</svg>
