<svg width="161" height="160" viewBox="0 0 161 160" fill="none" xmlns="http://www.w3.org/2000/svg">
<g clip-path="url(#clip0_4405_2270)">
<path d="M105.14 74.8802C105.14 74.8802 105.3 74.8802 105.3 74.5602C105.3 74.5602 105.3 74.4002 104.98 74.4002C104.66 74.4002 104.82 74.4002 104.82 74.7202C104.82 74.7202 104.82 74.8802 105.14 74.8802ZM89.7801 67.0402C89.7801 67.3602 90.1001 67.6802 90.4201 67.6802C90.7401 67.6802 91.0601 67.3602 91.0601 67.0402C91.0601 66.7202 90.7401 66.4002 90.4201 66.4002C90.1001 66.4002 89.7801 66.7202 89.7801 67.0402ZM94.2601 68.6402C94.2601 68.9602 94.5801 69.2802 94.9001 69.2802C95.2201 69.2802 95.5401 68.9602 95.5401 68.6402C95.5401 68.3202 95.2201 68.0002 94.9001 68.0002C94.5801 68.0002 94.2601 68.3202 94.2601 68.6402ZM77.4601 87.0402C77.4601 87.3602 77.7801 87.6802 78.1001 87.6802C78.4201 87.6802 78.7401 87.3602 78.7401 87.0402C78.7401 86.7202 78.4201 86.4002 78.1001 86.4002C77.7801 86.4002 77.4601 86.7202 77.4601 87.0402ZM80.9801 89.9202C80.9801 90.2402 81.3001 90.5602 81.6201 90.5602C81.9401 90.5602 82.2601 90.2402 82.2601 89.9202C82.2601 89.6002 81.9401 89.2802 81.6201 89.2802C81.3001 89.2802 80.9801 89.6002 80.9801 89.9202ZM85.3001 91.2002C85.3001 91.5202 85.6201 91.8402 85.9401 91.8402C86.2601 91.8402 86.5801 91.5202 86.5801 91.2002C86.5801 90.8802 86.2601 90.5602 85.9401 90.5602C85.6201 90.5602 85.3001 90.8802 85.3001 91.2002ZM89.9401 91.2002C89.9401 91.5202 90.2601 91.8402 90.5801 91.8402C90.9001 91.8402 91.2201 91.5202 91.2201 91.2002C91.2201 90.8802 90.9001 90.5602 90.5801 90.5602C90.2601 90.5602 89.9401 90.8802 89.9401 91.2002ZM94.2601 89.7602C94.2601 90.0802 94.5801 90.4002 94.9001 90.4002C95.2201 90.4002 95.5401 90.0802 95.5401 89.7602C95.5401 89.4402 95.2201 89.1202 94.9001 89.1202C94.5801 89.1202 94.2601 89.4402 94.2601 89.7602ZM97.7801 87.0402C97.7801 87.3602 98.1001 87.6802 98.4201 87.6802C98.7401 87.6802 99.0601 87.3602 99.0601 87.0402C99.0601 86.7202 98.7401 86.4002 98.4201 86.4002C98.1001 86.4002 97.7801 86.7202 97.7801 87.0402ZM97.7801 71.3602C97.7801 71.6802 98.1001 72.0002 98.4201 72.0002C98.7401 72.0002 99.0601 71.6802 99.0601 71.3602C99.0601 71.0402 98.7401 70.7202 98.4201 70.7202C98.1001 70.7202 97.7801 71.0402 97.7801 71.3602ZM92.8201 69.4402C92.8201 68.9602 92.3401 68.4802 91.8601 68.4802C91.3801 68.4802 90.9001 68.9602 90.9001 69.4402C90.9001 69.9202 91.2201 70.4002 91.8601 70.4002C92.5001 70.4002 92.8201 69.9202 92.8201 69.4402ZM95.8601 71.3602C95.8601 70.8802 95.3801 70.4002 94.9001 70.4002C94.4201 70.4002 93.9401 70.8802 93.9401 71.3602C93.9401 71.8402 94.2601 72.3202 94.9001 72.3202C95.3801 72.3202 95.8601 71.8402 95.8601 71.3602ZM98.1001 74.0802C98.1001 73.6002 97.7801 73.1202 97.1401 73.1202C96.5001 73.1202 96.1801 73.4402 96.1801 74.0802C96.1801 74.7202 96.5001 75.0402 97.1401 75.0402C97.6201 75.0402 98.1001 74.7202 98.1001 74.0802ZM91.7001 64.0002C91.7001 64.0002 91.7001 63.6802 91.5401 63.6802C91.5401 63.6802 91.2201 63.6802 91.2201 63.8402C91.2201 63.8402 91.2201 64.1602 91.3801 64.1602C91.3801 64.1602 91.5401 64.1602 91.7001 64.0002ZM97.7801 66.0802C97.7801 66.0802 97.7801 65.7602 97.6201 65.7602C97.6201 65.7602 97.4601 65.7602 97.4601 66.0802C97.4601 66.4002 97.4601 66.2402 97.6201 66.2402C97.6201 66.2402 97.9401 66.2402 97.9401 66.0802M102.42 69.4402C102.42 69.4402 102.42 69.1202 102.26 69.1202C102.26 69.1202 101.94 69.1202 101.94 69.2802C101.94 69.2802 101.94 69.6002 102.1 69.6002C102.1 69.6002 102.42 69.6002 102.42 69.4402ZM94.2601 66.4002C94.2601 66.0802 94.1001 65.9202 93.7801 65.9202C93.4601 65.9202 93.3001 66.0802 93.3001 66.4002C93.3001 66.7202 93.4601 66.8802 93.7801 66.8802C94.1001 66.8802 94.2601 66.7202 94.2601 66.4002ZM98.9001 68.6402C98.9001 68.3202 98.7401 68.1602 98.4201 68.1602C98.1001 68.1602 97.9401 68.1602 97.9401 68.4802C97.9401 68.8002 97.9401 68.9602 98.2601 68.9602C98.5801 68.9602 98.7401 68.8002 98.7401 68.4802M101.94 72.0002C101.62 72.0002 101.46 72.1602 101.46 72.4802C101.46 72.8002 101.62 72.9602 101.94 72.9602C102.26 72.9602 102.42 72.8002 102.42 72.4802C102.42 72.1602 102.26 72.0002 101.94 72.0002ZM88.3401 65.1202C88.0201 65.1202 87.8601 65.2802 87.8601 65.6002C87.8601 65.9202 88.0201 66.0802 88.3401 66.0802C88.6601 66.0802 88.8201 65.9202 88.8201 65.6002C88.8201 65.4402 88.6601 65.1202 88.3401 65.1202ZM86.1001 66.4002C85.7801 66.4002 85.4601 66.7202 85.4601 67.0402C85.4601 67.3602 85.7801 67.6802 86.1001 67.6802C86.4201 67.6802 86.7401 67.3602 86.7401 67.0402C86.7401 66.7202 86.4201 66.4002 86.1001 66.4002ZM81.6201 67.8402C81.3001 67.8402 80.9801 68.1602 80.9801 68.4802C80.9801 68.8002 81.3001 69.1202 81.6201 69.1202C81.9401 69.1202 82.2601 68.8002 82.2601 68.4802C82.2601 68.1602 81.9401 67.8402 81.6201 67.8402ZM75.0601 78.5602C74.7401 78.5602 74.4201 78.8802 74.4201 79.2002C74.4201 79.5202 74.7401 79.8402 75.0601 79.8402C75.3801 79.8402 75.7001 79.5202 75.7001 79.2002C75.7001 78.8802 75.3801 78.5602 75.0601 78.5602ZM76.0201 74.4002C75.7001 74.4002 75.3801 74.7202 75.3801 75.0402C75.3801 75.3602 75.7001 75.6802 76.0201 75.6802C76.3401 75.6802 76.6601 75.3602 76.6601 75.0402C76.6601 74.7202 76.3401 74.4002 76.0201 74.4002ZM78.2601 70.7202C77.9401 70.7202 77.6201 71.0402 77.6201 71.3602C77.6201 71.6802 77.9401 72.0002 78.2601 72.0002C78.5801 72.0002 78.9001 71.6802 78.9001 71.3602C78.9001 71.0402 78.5801 70.7202 78.2601 70.7202ZM88.3401 90.4002C88.8201 90.4002 89.3001 90.0802 89.3001 89.4402C89.3001 88.8002 88.9801 88.4802 88.3401 88.4802C87.7001 88.4802 87.3801 88.8002 87.3801 89.4402C87.3801 89.9202 87.7001 90.4002 88.3401 90.4002ZM88.3401 69.9202C88.8201 69.9202 89.3001 69.6002 89.3001 68.9602C89.3001 68.3202 88.9801 68.0002 88.3401 68.0002C87.7001 68.0002 87.3801 68.3202 87.3801 68.9602C87.3801 69.4402 87.7001 69.9202 88.3401 69.9202ZM84.6601 70.4002C85.1401 70.4002 85.6201 70.0802 85.6201 69.4402C85.6201 68.8002 85.3001 68.4802 84.6601 68.4802C84.0201 68.4802 83.7001 68.8002 83.7001 69.4402C83.7001 69.9202 84.0201 70.4002 84.6601 70.4002ZM81.7801 72.3202C82.2601 72.3202 82.7401 72.0002 82.7401 71.3602C82.7401 70.7202 82.4201 70.4002 81.7801 70.4002C81.1401 70.4002 80.8201 70.7202 80.8201 71.3602C80.8201 71.8402 81.1401 72.3202 81.7801 72.3202ZM79.3801 74.8802C79.8601 74.8802 80.3401 74.5602 80.3401 74.0802C80.3401 73.6002 80.0201 73.1202 79.5401 73.1202C79.0601 73.1202 78.5801 73.4402 78.5801 73.9202C78.5801 74.4002 78.9001 74.8802 79.5401 74.8802M78.4201 78.2402C78.9001 78.2402 79.3801 77.9202 79.3801 77.2802C79.3801 76.6402 79.0601 76.3202 78.4201 76.3202C77.7801 76.3202 77.4601 76.6402 77.4601 77.2802C77.4601 77.7602 77.7801 78.2402 78.4201 78.2402ZM85.1401 64.1602C85.1401 64.1602 85.3001 64.1602 85.3001 63.8402C85.3001 63.8402 85.3001 63.6802 84.9801 63.6802C84.9801 63.6802 84.8201 63.6802 84.8201 64.0002C84.8201 64.0002 84.8201 64.1602 85.1401 64.1602ZM79.2201 66.4002C79.2201 66.4002 79.3801 66.4002 79.3801 66.0802C79.3801 66.0802 79.3801 65.9202 79.0601 65.9202C78.7401 65.9202 78.9001 65.9202 78.9001 66.2402C78.9001 66.2402 78.9001 66.4002 79.2201 66.4002ZM105.14 85.1202C105.14 85.1202 105.3 85.1202 105.3 84.9602C105.3 84.8002 105.3 84.8002 105.14 84.8002C105.14 84.8002 104.98 84.8002 104.98 85.1202C104.98 85.1202 104.98 85.2802 105.3 85.2802M102.26 89.1202C102.26 89.1202 102.42 89.1202 102.42 88.8002C102.42 88.8002 102.42 88.6402 102.1 88.6402C102.1 88.6402 101.94 88.6402 101.94 88.9602C101.94 88.9602 101.94 89.1202 102.26 89.1202ZM97.4601 92.4802C97.4601 92.4802 97.6201 92.4802 97.6201 92.1602C97.6201 92.1602 97.6201 92.0002 97.4601 91.8402C97.4601 91.8402 97.3001 91.8402 97.1401 92.0002C97.1401 92.1602 97.1401 92.3202 97.4601 92.3202M91.5401 94.7202C91.5401 94.7202 91.7001 94.7202 91.7001 94.4002C91.7001 94.4002 91.7001 94.2402 91.3801 94.2402C91.3801 94.2402 91.2201 94.2402 91.2201 94.5602C91.2201 94.5602 91.2201 94.7202 91.5401 94.7202ZM85.1401 94.7202C85.1401 94.7202 85.3001 94.7202 85.3001 94.4002C85.3001 94.4002 85.3001 94.2402 84.9801 94.2402C84.9801 94.2402 84.8201 94.2402 84.8201 94.5602C84.8201 94.5602 84.8201 94.7202 85.1401 94.7202ZM79.2201 92.4802C79.2201 92.4802 79.3801 92.4802 79.3801 92.1602C79.3801 92.1602 79.3801 92.0002 79.0601 92.0002C79.0601 92.0002 78.9001 92.0002 78.9001 92.3202C78.9001 92.3202 78.9001 92.4802 79.2201 92.4802ZM74.4201 89.1202C74.4201 89.1202 74.5801 89.1202 74.5801 88.8002C74.5801 88.8002 74.5801 88.6402 74.2601 88.6402C74.2601 88.6402 74.1001 88.6402 74.1001 88.9602C74.1001 88.9602 74.1001 89.1202 74.4201 89.1202ZM71.3801 85.1202C71.3801 85.1202 71.5401 85.1202 71.5401 84.9602C71.5401 84.8002 71.5401 84.8002 71.3801 84.8002C71.3801 84.8002 71.2201 84.8002 71.2201 85.1202C71.2201 85.1202 71.2201 85.2802 71.3801 85.2802M74.4201 69.7602C74.4201 69.7602 74.5801 69.7602 74.5801 69.4402C74.5801 69.4402 74.5801 69.2802 74.2601 69.2802C74.2601 69.2802 74.1001 69.2802 74.1001 69.6002C74.1001 69.6002 74.1001 69.7602 74.4201 69.7602ZM82.9001 66.7202C83.2201 66.7202 83.3801 66.4002 83.2201 66.2402C83.2201 66.0802 83.0601 65.7602 82.7401 65.9202C82.4201 65.9202 82.2601 66.2402 82.4201 66.4002C82.4201 66.5602 82.5801 66.7202 82.9001 66.7202ZM78.2601 69.1202C78.4201 69.1202 78.7401 68.9602 78.7401 68.6402C78.7401 68.4802 78.5801 68.1602 78.2601 68.1602C78.1001 68.1602 77.7801 68.3202 77.7801 68.6402C77.7801 68.8002 77.9401 68.9602 78.2601 69.1202ZM74.2601 72.4802C74.2601 72.6402 74.4201 72.9602 74.7401 72.9602C75.0601 72.9602 75.2201 72.8002 75.2201 72.4802C75.2201 72.1602 75.0601 72.0002 74.7401 72.0002C74.4201 72.0002 74.2601 72.1602 74.2601 72.4802ZM103.7 81.1202C103.38 81.1202 103.22 81.4402 103.22 81.6002C103.22 81.9202 103.54 82.0802 103.7 82.0802C104.02 82.0802 104.18 81.7602 104.18 81.6002C104.18 81.2802 103.86 81.1202 103.7 81.1202ZM101.94 85.4402C101.62 85.4402 101.46 85.7602 101.62 85.9202C101.62 86.0802 101.78 86.4002 102.1 86.2402C102.42 86.2402 102.58 85.9202 102.42 85.7602C102.42 85.6002 102.26 85.4402 101.94 85.4402ZM98.4201 89.2802C98.1001 89.2802 97.9401 89.4402 97.9401 89.7602C97.9401 90.0802 98.1001 90.2402 98.4201 90.2402C98.7401 90.2402 98.9001 90.0802 98.9001 89.7602C98.9001 89.6002 98.7401 89.2802 98.4201 89.2802ZM93.7801 91.5202C93.4601 91.5202 93.3001 91.6802 93.3001 92.0002C93.3001 92.3202 93.4601 92.4802 93.7801 92.4802C94.1001 92.4802 94.2601 92.3202 94.2601 92.0002C94.2601 91.6802 94.1001 91.5202 93.7801 91.5202ZM88.1801 92.3202C87.8601 92.3202 87.7001 92.4802 87.7001 92.8002C87.7001 93.1202 87.8601 93.2802 88.1801 93.2802C88.5001 93.2802 88.6601 92.9602 88.5001 92.8002C88.5001 92.6402 88.3401 92.4802 88.0201 92.4802M82.9001 91.6802C82.5801 91.6802 82.4201 92.0002 82.4201 92.1602C82.4201 92.3202 82.7401 92.6402 82.9001 92.6402C83.0601 92.6402 83.3801 92.4802 83.3801 92.1602C83.3801 91.8402 83.2201 91.6802 82.9001 91.6802ZM78.2601 89.2802C77.9401 89.2802 77.7801 89.4402 77.7801 89.7602C77.7801 90.0802 77.9401 90.2402 78.2601 90.2402C78.5801 90.2402 78.7401 89.9202 78.5801 89.7602C78.5801 89.6002 78.4201 89.2802 78.1001 89.4402M74.5801 85.6002C74.2601 85.6002 74.1001 85.9202 74.2601 86.0802C74.2601 86.2402 74.4201 86.5602 74.7401 86.4002C75.0601 86.4002 75.2201 86.0802 75.0601 85.9202C75.0601 85.7602 74.9001 85.6002 74.5801 85.6002ZM72.6601 76.8002C72.3401 76.8002 72.1801 77.1202 72.3401 77.2802C72.3401 77.4402 72.5001 77.7602 72.8201 77.6002C73.1401 77.6002 73.3001 77.2802 73.1401 77.1202C73.1401 76.9602 72.9801 76.8002 72.6601 76.8002ZM85.6201 88.8002C85.6201 88.3202 85.3001 87.8402 84.6601 87.8402C84.0201 87.8402 83.7001 88.1602 83.7001 88.8002C83.7001 89.4402 84.0201 89.7602 84.6601 89.7602C85.1401 89.7602 85.6201 89.4402 85.6201 88.8002ZM91.8601 88.0002C91.3801 88.0002 90.9001 88.3202 90.9001 88.9602C90.9001 89.6002 91.2201 89.9202 91.8601 89.9202C92.5001 89.9202 92.8201 89.6002 92.8201 88.9602C92.8201 88.4802 92.5001 88.0002 91.8601 88.0002ZM94.9001 86.2402C94.4201 86.2402 93.9401 86.5602 93.9401 87.2002C93.9401 87.6802 94.2601 88.1602 94.9001 88.1602C95.3801 88.1602 95.8601 87.8402 95.8601 87.2002C95.8601 86.7202 95.5401 86.2402 94.9001 86.2402ZM98.1001 84.3202C98.1001 83.8402 97.6201 83.3602 97.1401 83.3602C96.6601 83.3602 96.1801 83.8402 96.1801 84.3202C96.1801 84.8002 96.5001 85.2802 97.1401 85.2802C97.6201 85.2802 98.1001 84.8002 98.1001 84.3202ZM81.7801 86.0802C81.3001 86.0802 80.8201 86.4002 80.8201 87.0402C80.8201 87.6802 81.1401 88.0002 81.7801 88.0002C82.4201 88.0002 82.7401 87.6802 82.7401 87.0402C82.7401 86.5602 82.4201 86.0802 81.7801 86.0802ZM79.3801 83.5202C78.9001 83.5202 78.4201 83.8402 78.4201 84.4802C78.4201 85.1202 78.7401 85.4402 79.3801 85.4402C80.0201 85.4402 80.3401 85.1202 80.3401 84.4802C80.3401 84.0002 79.8601 83.5202 79.3801 83.5202ZM115.38 75.6802H120.98V83.0402H122.9V75.6802H128.02L128.5 74.4002H115.86L115.38 75.6802ZM70.2601 74.4002H68.3401V83.0402H77.3001L77.7801 81.7602H70.4201V74.4002H70.2601ZM88.5001 74.4002L93.1401 83.0402H95.2201L90.5801 74.4002H88.5001ZM81.3001 83.0402H83.3801L88.0201 74.4002H85.9401L81.3001 83.0402ZM109.3 80.9602L101.14 74.5602H99.2201V83.2002H101.14V76.8002L109.3 83.2002H111.22V74.5602H109.3V80.9602ZM148.82 78.0802H142.9C142.26 78.0802 141.78 77.7602 141.78 77.1202V76.8002C141.78 76.1602 142.26 75.6802 142.9 75.6802H151.06L151.54 74.4002H142.42C140.82 74.4002 139.86 75.5202 139.86 76.6402V77.2802C139.86 78.4002 140.66 79.5202 142.42 79.5202H148.34C148.98 79.5202 149.46 79.8402 149.46 80.4802V80.8002C149.46 81.4402 148.98 81.9202 148.34 81.9202H140.18L139.7 83.2002H148.82C150.42 83.2002 151.38 82.0802 151.38 80.9602V80.3202C151.38 79.2002 150.58 78.0802 148.82 78.0802ZM13.9401 78.0802H8.0201C7.3801 78.0802 6.9001 77.7602 6.9001 77.1202V76.8002C6.9001 76.1602 7.3801 75.6802 8.0201 75.6802H16.1801L16.6601 74.4002H7.5401C5.9401 74.4002 4.9801 75.5202 4.9801 76.6402V77.2802C4.9801 78.4002 5.7801 79.5202 7.5401 79.5202H13.4601C14.1001 79.5202 14.5801 79.8402 14.5801 80.4802V80.8002C14.5801 81.4402 14.1001 81.9202 13.4601 81.9202H5.4601L4.9801 83.2002H14.1001C15.7001 83.2002 16.6601 82.0802 16.6601 80.9602V80.3202C16.6601 79.2002 15.8601 78.0802 14.1001 78.0802M132.5 83.0402H134.42V74.4002H132.5V83.0402ZM20.8201 75.6802H26.4201V83.0402H28.3401V75.6802H33.4601L33.9401 74.4002H21.4601L20.9801 75.6802H20.8201ZM47.5401 75.6802L48.0201 74.4002H38.1001V83.0402H47.5401L48.0201 81.7602H40.0201V79.3602H45.6201L46.1001 78.0802H40.0201V75.6802H47.5401ZM55.8601 81.9202H63.2201L62.7401 83.2002H53.7801V74.5602H55.7001V81.9202H55.8601Z" fill="#8B8B8B"/>
</g>
<defs>
<clipPath id="clip0_4405_2270">
<rect width="160" height="160" fill="white" transform="translate(0.5)"/>
</clipPath>
</defs>
</svg>
