<svg width="160" height="160" viewBox="0 0 160 160" fill="none" xmlns="http://www.w3.org/2000/svg">
<path d="M27.4624 69.3573L24.4313 83.1799L19.2791 69.3573H13.8198L9 91.1889H14.6348L17.5761 77.4928L22.6621 91.1889H28.1054L32.9182 69.3573H27.4624ZM71.9204 69.4142H65.1509L59.745 79.9142L65.7496 80.0073L71.9204 69.4142ZM53.5944 91.2297H59.2257L63.3817 84.1047L52.7501 84.459L53.5944 91.2297ZM57.0947 69.4142H50.8371L52.1576 79.7698L57.7498 79.8647L57.0947 69.4142ZM78.9649 69.4142H72.9183L70.5533 80.0982L76.5999 80.2052L78.9649 69.4142ZM68.125 91.2297H74.1589L75.8292 83.6791L69.7383 83.8965L68.125 91.2297ZM88.3726 83.5048C88.8385 83.7706 89.0444 84.222 89.022 84.8593C88.9875 85.5645 88.731 86.1034 88.2231 86.4916C87.7474 86.8798 87.0544 87.1013 86.1779 87.1191C85.6807 87.1453 85.1825 87.0959 84.7003 86.9724C84.2068 86.8792 83.7847 86.6377 83.4166 86.2696C83.137 85.9487 82.9409 85.5944 82.8742 85.2378C82.7948 84.8737 82.7672 84.5326 82.7948 84.2577L77.3614 84.2042C77.305 84.9508 77.4344 86.1034 77.5546 86.9592C77.6714 87.8219 78.0142 88.6421 78.6066 89.4421C78.855 89.7671 79.2542 90.1254 79.8029 90.5096C80.3757 90.8978 81.0935 91.2245 82.0253 91.5115C82.9409 91.787 84.0739 91.9216 85.4181 91.9532C86.4798 91.9532 87.4748 91.844 88.4296 91.6461C89.3533 91.454 90.2315 91.0882 91.077 90.5809C92.0248 89.9569 92.7794 89.2443 93.3316 88.45C93.8481 87.6655 94.2231 86.8936 94.4342 86.1189C94.6728 85.3608 94.7764 84.6971 94.7896 84.1444C94.8028 83.7706 94.7896 83.4255 94.762 83.0671L88.0074 83.2874L88.3726 83.5048ZM92.9221 79.5547C92.2808 79.1389 91.5457 78.7644 90.7095 78.4303L87.3103 77.1327C86.842 76.9672 86.4022 76.7301 86.0065 76.4299C85.5734 76.1325 85.3606 75.7207 85.3606 75.1818C85.3818 74.7602 85.5947 74.3582 86.0231 74.0177C86.4453 73.6789 87.0975 73.4949 87.989 73.4886C88.9593 73.4886 89.6857 73.6789 90.1838 74.0493C90.6669 74.4335 90.8671 74.9661 90.7727 75.6557L96.2062 75.6339C96.2384 75.107 96.086 73.9901 96.0129 73.3327C95.9497 72.673 95.7162 72.0116 95.3314 71.3582C94.9449 70.691 94.2892 70.1147 93.3621 69.5954C92.6872 69.2311 91.9582 68.9777 91.203 68.8448C90.4462 68.7113 89.6794 68.644 88.911 68.6435C87.476 68.6688 86.2923 68.7936 85.3606 69.0076C84.4156 69.2509 83.6547 69.5701 83.026 69.952C82.0655 70.5371 81.2695 71.3569 80.7128 72.3342C80.1353 73.3385 79.8121 74.521 79.7454 75.8599C79.7097 76.5271 79.7856 77.2317 79.9892 77.9742C80.1986 78.7109 80.5069 79.3074 80.9175 79.7428C81.0929 79.9446 81.296 80.131 81.4823 80.2972L93.9027 80.5388C93.6462 80.1476 93.3125 79.8123 92.9221 79.5547ZM108.499 74.2668H113.296L114.41 69.3573H98.0967L97.0223 74.2668H102.285L100.852 80.659L107.035 80.7625L108.499 74.2668ZM98.4677 91.1889H104.675L106.6 82.6766L100.351 82.8693L98.4677 91.1889ZM142.989 77.1511C142.838 77.4846 142.614 77.7797 142.333 78.0144C142.137 78.183 141.841 78.3055 141.452 78.3808C141.059 78.4562 140.481 78.4901 139.735 78.5096C138.974 78.5096 137.953 78.5096 136.685 78.4838L137.621 74.1903H141.692C142.137 74.1759 142.523 74.3013 142.846 74.5883C143.158 74.8638 143.321 75.3411 143.319 76.0756C143.284 76.4299 143.172 76.783 142.989 77.1511ZM146.994 70.285C146.325 69.8927 145.671 69.6397 144.984 69.5344C144.305 69.4119 143.724 69.3446 143.235 69.3268H132.913L128.209 91.152H133.94L135.57 83.5215H139.18L141.023 91.152H146.878L144.579 82.5415C145.264 82.2407 145.949 81.8306 146.611 81.3296C147.266 80.8143 147.874 79.9907 148.387 78.8639C148.623 78.32 148.808 77.756 148.942 77.1787C149.069 76.6122 149.12 76.1072 149.155 75.6316C149.199 74.1529 149.009 72.9882 148.59 72.1404C148.175 71.2892 147.649 70.6732 146.994 70.285ZM44.1809 91.152H50.427L49.5896 84.5574L43.7811 84.7529L44.1809 91.152ZM119.079 69.3308L112.563 80.8609L118.401 80.9736L120.294 77.2288L121.128 91.1526H127.186L124.524 69.3314L119.079 69.3308Z" fill="#4C4A4D"/>
<path d="M106.755 91.1521H113.305L117.738 82.2976L111.631 82.5075L106.755 91.1521ZM47.659 69.3308H42.0398L29.3496 91.1521H36.1249L43.2936 77.2294L43.4374 79.6019L48.9652 79.695L47.659 69.3308Z" fill="#4C4A4D"/>
</svg>
