<svg width="161" height="160" viewBox="0 0 161 160" fill="none" xmlns="http://www.w3.org/2000/svg">
<path d="M77.1402 24.3198C76.0202 26.3998 60.9802 54.7198 54.4202 66.7198C54.2602 67.1998 54.2602 67.5198 54.4202 67.8398C60.8202 79.6798 73.6202 103.84 73.7802 104C73.7802 103.84 86.9002 79.6798 93.1402 67.8398C93.3002 67.3598 93.3002 67.1998 93.1402 66.7198C89.4602 59.9998 85.9402 53.1198 82.2602 46.3998C82.1002 45.9198 81.9402 45.5998 82.2602 45.2798C83.2202 43.5198 84.1802 41.5998 85.3002 39.6798C85.3002 39.9998 95.0602 57.9198 99.8602 66.7198C100.02 67.0398 100.02 67.3598 99.8602 67.6798C92.3402 81.5998 84.8202 95.6798 77.4602 109.6C77.3002 109.92 76.9802 110.08 76.6602 110.08C74.7402 110.08 72.9802 110.08 71.0602 110.08C70.7402 110.08 70.5802 110.08 70.4202 109.6C62.9002 95.5198 55.3802 81.4398 47.8602 67.3598C47.8602 67.0398 47.7002 66.8798 47.8602 66.5598C55.3802 52.4798 62.9002 38.3998 70.4202 24.3198C70.4202 24.1598 70.7402 23.8398 70.9002 23.8398C72.9802 23.8398 75.0602 23.8398 77.1402 23.8398V24.3198Z" fill="#8B8B8B"/>
<path d="M85.7801 32.96C82.2601 39.36 72.8201 57.12 67.7001 66.72C67.5401 67.2 67.5401 67.36 67.7001 67.84C71.3801 74.56 74.9001 81.44 78.5801 88.16C78.7401 88.64 78.9001 88.96 78.5801 89.28C77.6201 91.04 76.6601 92.96 75.5401 94.88C75.5401 94.72 65.7801 76.64 60.9801 67.84C60.8201 67.52 60.8201 67.2 60.9801 66.88C68.5001 52.96 76.0201 38.88 83.3801 24.96C83.5401 24.64 83.8601 24.48 84.1801 24.48C86.1001 24.48 87.8601 24.48 89.7801 24.48C90.1001 24.48 90.2601 24.48 90.4201 24.96C97.9401 39.04 105.46 53.12 112.98 67.2C112.98 67.52 113.14 67.68 112.98 68C105.46 82.08 97.9401 96.16 90.4201 110.24C90.4201 110.4 90.1001 110.72 89.9401 110.72C87.8601 110.72 85.7801 110.72 83.7001 110.72C83.7001 110.4 98.9001 82.24 106.42 68.32C106.58 67.84 106.58 67.52 106.42 67.2C100.02 55.36 87.2201 31.2 87.0601 31.04C87.0601 31.04 86.5801 32 85.7801 33.44" fill="#8B8B8B"/>
<path d="M32.6601 135.36H29.4601V121.76C29.4601 121.6 29.4601 121.44 29.4601 121.44C29.4601 121.44 29.4601 121.44 29.1401 121.28L28.3401 120.96L28.6601 119.52H36.5001C38.5801 119.52 40.0201 119.84 40.9801 120.64C41.9401 121.44 42.2601 122.72 42.2601 124.32C42.2601 125.92 41.9401 126.72 41.4601 127.52C40.9801 128.32 40.0201 128.8 38.9001 128.96L42.7401 135.2H39.2201L35.7001 129.28H32.6601V135.2V135.36ZM32.6601 127.04H36.1801C37.3001 127.04 38.1001 126.88 38.4201 126.4C38.9001 126.08 39.0601 125.28 39.0601 124.32C39.0601 123.36 38.9001 122.72 38.4201 122.4C37.9401 122.08 37.1401 121.76 36.1801 121.76H32.6601V126.88V127.04Z" fill="#8B8B8B"/>
<path d="M56.66 119.52V121.92H48.34V126.08H54.9V128.32H48.34V132.8H56.82V135.2H45.14V121.6C45.14 121.44 45.14 121.28 45.14 121.28C45.14 121.28 45.14 121.28 44.82 121.12L44.02 120.8L44.34 119.36H56.66V119.52Z" fill="#8B8B8B"/>
<path d="M59.5402 121.76C59.5402 121.6 59.5402 121.44 59.5402 121.44C59.5402 121.44 59.5402 121.44 59.2202 121.28L58.4202 120.96L58.7402 119.52H62.2602C62.4202 119.52 62.5802 119.52 62.7402 119.52C62.7402 119.52 62.9002 119.68 63.0602 120L71.2202 131.04V119.52H74.1002V135.36H71.0602L62.5802 123.84V135.36H59.7002V121.76H59.5402Z" fill="#8B8B8B"/>
<path d="M85.1402 119.52C85.4602 120.16 85.7802 120.8 86.1002 121.6C86.4202 122.4 86.9002 123.2 87.2202 124.16C87.5402 125.12 88.0202 126.08 88.3402 127.04C88.6602 128 89.1402 129.12 89.4602 130.08C89.7802 131.04 90.1002 132 90.4202 132.96C90.7402 133.92 90.9002 134.72 91.0602 135.36H87.8602C87.7002 134.72 87.5402 134.08 87.3802 133.44C87.2202 132.8 87.0602 132.16 86.9002 131.68H79.8602C79.7002 132.32 79.5402 132.96 79.3802 133.44C79.2202 134.08 79.0602 134.72 78.9002 135.36H75.7002C75.8602 134.56 76.1802 133.76 76.3402 132.96C76.6602 132 76.9802 131.04 77.3002 130.08C77.6202 129.12 77.9402 128.16 78.4202 127.04C78.7402 126.08 79.2202 125.12 79.5402 124.16C79.8602 123.2 80.3402 122.4 80.6602 121.6C80.9802 120.8 81.3002 120.16 81.6202 119.52H85.1402ZM83.3802 122.4C82.4202 124.64 81.4602 127.04 80.6602 129.44H86.1002C85.3002 127.04 84.3402 124.64 83.3802 122.4Z" fill="#8B8B8B"/>
<path d="M92.66 121.76C92.66 121.6 92.66 121.44 92.66 121.44C92.66 121.44 92.66 121.44 92.34 121.28L91.54 120.96L91.86 119.52H95.7C95.7 119.52 95.86 119.52 95.86 119.68V128.8C95.86 130.24 96.18 131.36 96.82 132C97.46 132.64 98.58 132.96 100.02 132.96C101.46 132.96 102.58 132.64 103.22 132C103.86 131.36 104.18 130.24 104.18 128.8V119.36H107.38V128.96C107.38 130.08 107.38 131.04 106.9 131.84C106.58 132.64 106.26 133.28 105.62 133.92C104.98 134.4 104.34 134.88 103.38 135.04C102.42 135.2 101.3 135.36 100.02 135.36C98.74 135.36 97.62 135.36 96.66 135.04C95.7 134.72 95.06 134.4 94.42 133.92C93.78 133.44 93.46 132.8 93.14 131.84C92.82 131.04 92.66 130.08 92.66 128.96V121.6V121.76Z" fill="#8B8B8B"/>
<path d="M110.74 121.76C110.74 121.6 110.74 121.44 110.74 121.44C110.74 121.44 110.74 121.44 110.42 121.28L109.62 120.96L109.94 119.52H113.78C113.78 119.52 113.94 119.52 113.94 119.68V132.8H121.14V135.2H110.74V121.6V121.76Z" fill="#8B8B8B"/>
<path d="M124.5 121.92H119.38V119.52H132.82V121.92H127.7V135.36H124.5V121.92Z" fill="#8B8B8B"/>
</svg>
