<svg width="161" height="160" viewBox="0 0 161 160" fill="none" xmlns="http://www.w3.org/2000/svg">
<path d="M78.74 21.1201H83.06C91.86 21.6001 100.66 23.8401 108.34 28.0001C121.78 35.2001 132.34 47.6801 136.82 62.2401C138.1 66.0801 138.9 70.0801 139.22 74.2401C139.54 77.4401 139.22 80.6401 139.38 83.8401C138.9 92.8001 136.18 101.76 131.7 109.44C127.38 116.96 121.14 123.68 113.94 128.64C104.82 134.88 93.94 138.4 83.06 138.88H78.26C75.86 138.72 73.3 138.56 70.9 138.08C58.58 136 47.06 130.08 38.42 121.12C28.34 110.88 22.26 96.8001 21.78 82.4001C21.62 80.6401 21.78 78.8801 21.78 77.1201C21.78 75.5201 22.1 73.9201 22.1 72.3201C24.02 56.3201 32.98 41.4401 46.1 32.1601C55.54 25.2801 67.06 21.4401 78.74 21.1201ZM75.22 26.7201C74.58 26.7201 73.94 26.8801 73.3 27.0401C72.34 27.2001 71.38 27.3601 70.42 27.5201C70.1 27.5201 69.62 27.6801 69.3 27.8401C68.98 27.8401 68.66 27.8401 68.34 28.0001C67.38 28.3201 66.42 28.4801 65.46 28.8001C65.46 28.8001 65.14 28.8001 64.98 28.8001C64.82 28.8001 64.5 28.9601 64.34 29.1201C64.02 29.1201 63.86 29.1201 63.54 29.2801C63.54 29.2801 63.22 29.4401 63.22 29.6001C63.38 30.0801 63.7 30.4001 63.86 30.8801C64.18 31.5201 64.34 32.1601 64.66 32.8001C64.98 33.6001 65.46 34.4001 65.78 35.2001C66.1 35.8401 66.42 36.6401 66.74 37.2801C67.38 38.5601 67.86 40.0001 68.5 41.2801C71.54 48.0001 74.58 54.7201 77.46 61.4401C77.78 62.0801 78.1 62.8801 78.42 63.5201C78.74 64.1601 79.06 64.9601 79.38 65.6001C79.7 66.4001 80.02 67.2001 80.66 67.6801C81.3 67.2001 81.46 66.4001 81.78 65.7601C82.1 64.9601 82.42 64.1601 82.9 63.3601C86.1 56.0001 89.46 48.8001 92.66 41.4401C92.98 40.8001 93.3 40.0001 93.62 39.3601C93.94 38.7201 94.26 37.9201 94.58 37.2801C94.9 36.6401 95.22 35.8401 95.54 35.2001C95.86 34.4001 96.18 33.6001 96.5 32.8001C96.82 32.0001 97.14 31.3601 97.46 30.7201C97.62 30.2401 97.94 29.9201 98.1 29.4401C97.78 29.4401 97.3 29.1201 96.98 28.9601C96.66 28.9601 96.5 28.9601 96.18 28.6401C96.18 28.6401 95.86 28.6401 95.7 28.6401C94.74 28.3201 93.78 28.1601 92.82 27.8401C92.18 27.8401 91.38 27.5201 90.74 27.3601C89.78 27.3601 88.82 27.0401 87.86 26.8801C87.22 26.8801 86.58 26.8801 85.94 26.5601C84.82 26.5601 83.54 26.5601 82.42 26.2401C80.02 26.2401 77.78 26.2401 75.38 26.5601M54.1 33.6001C46.74 37.9201 40.5 44.0001 35.86 51.0401C35.86 51.6801 36.34 52.1601 36.5 52.6401C36.82 53.2801 37.14 54.0801 37.62 54.7201C37.94 55.5201 38.42 56.3201 38.74 57.1201C42.9 65.6001 47.22 74.0801 51.38 82.5601C51.38 82.7201 51.54 83.0401 51.7 83.2001C52.18 84.1601 52.66 85.1201 53.14 86.0801C56.34 92.6401 59.7 99.2001 63.06 105.92C63.06 106.4 63.54 106.56 64.02 106.56C64.34 105.92 64.66 105.12 64.98 104.48C65.3 103.84 65.62 103.2 65.78 102.56C66.1 101.92 66.26 101.28 66.58 100.64C66.9 100 67.22 99.3601 67.38 98.7201C67.7 98.0801 67.86 97.4401 68.18 96.8001C70.26 92.0001 72.34 87.2001 74.42 82.4001C74.58 81.9201 75.22 81.4401 75.7 81.6001C78.9 81.6001 82.1 81.6001 85.3 81.6001C85.94 81.6001 86.42 81.9201 86.58 82.5601C88.66 87.3601 90.74 92.0001 92.82 96.8001C93.14 97.4401 93.3 98.0801 93.62 98.7201C93.94 99.3601 94.26 100 94.42 100.64C94.74 101.28 94.9 101.92 95.22 102.56C95.86 103.84 96.34 105.28 96.98 106.56H97.62C100.34 101.44 102.74 96.3201 105.3 91.2001C111.06 79.5201 116.82 68.0001 122.58 56.3201C123.06 55.5201 123.38 54.5601 123.86 53.7601C124.34 52.9601 124.66 52.0001 125.14 51.3601C124.66 50.7201 124.18 50.0801 123.86 49.4401C119.38 43.0401 113.46 37.6001 106.74 33.7601C106.42 33.7601 106.26 33.4401 105.94 33.4401C102.9 40.0001 100.02 46.5601 97.14 53.1201C96.82 53.9201 96.34 54.8801 96.02 55.6801C95.7 56.3201 95.38 56.9601 95.22 57.6001C94.9 58.4001 94.42 59.2001 94.1 60.0001C93.78 60.8001 93.46 61.6001 92.98 62.4001C90.9 66.8801 88.98 71.5201 86.9 76.0001C86.74 76.4801 86.42 76.9601 86.1 77.4401C85.78 77.9201 85.14 77.7601 84.66 77.9201C81.62 77.9201 78.74 77.9201 75.7 77.9201C75.06 77.9201 74.42 77.7601 74.1 77.1201C71.86 72.3201 69.78 67.3601 67.54 62.5601C67.22 61.7601 66.9 60.9601 66.42 60.1601C66.1 59.3601 65.62 58.5601 65.3 57.7601C64.98 56.9601 64.66 56.1601 64.18 55.3601C60.98 48.0001 57.62 40.8001 54.42 33.4401C54.1 33.4401 53.94 33.6001 53.62 33.7601M130.42 61.2801C129.3 63.6801 128.18 65.9201 127.06 68.1601C126.74 68.8001 126.42 69.4401 126.1 70.0801C125.78 70.7201 125.46 71.3601 125.14 72.0001C125.14 72.1601 124.82 72.4801 124.82 72.6401C124.82 72.9601 124.66 73.1201 124.5 73.4401C124.5 73.4401 124.34 73.7601 124.18 73.9201C124.18 74.0801 124.02 74.4001 123.86 74.5601C123.7 75.0401 123.54 75.3601 123.22 75.8401C119.38 83.6801 115.38 91.6801 111.38 99.5201C111.38 99.5201 111.22 99.8401 111.22 100C111.06 100.32 110.9 100.64 110.74 100.96C110.58 101.28 110.42 101.6 110.26 101.92C110.26 102.24 109.94 102.56 109.78 102.88C109.78 102.88 109.62 103.2 109.62 103.36C109.62 103.52 109.46 103.84 109.3 104C108.98 104.8 108.5 105.6 108.18 106.4C105.3 112.32 102.26 118.4 99.22 124.32C98.74 125.28 97.46 125.92 96.5 125.28C95.54 124.64 95.22 123.36 94.74 122.24C94.42 121.44 94.1 120.64 93.62 119.84C90.1 111.84 86.42 103.84 82.9 95.8401C82.58 95.0401 82.26 94.4001 81.94 93.7601C81.62 92.9601 81.3 92.3201 80.98 91.5201C80.82 91.2001 80.34 91.0401 80.02 91.2001C79.54 92.0001 79.22 92.9601 78.74 93.9201C75.22 101.92 71.54 110.08 68.02 118.08C67.7 118.72 67.38 119.36 67.22 120C66.9 120.8 66.58 121.6 66.1 122.4C65.78 123.04 65.46 123.84 65.14 124.48C64.66 125.12 63.7 125.44 62.9 125.12C62.26 124.96 61.94 124.32 61.78 123.84C58.74 117.92 55.86 111.84 52.82 105.92C52.82 105.6 52.5 105.28 52.34 104.96C52.02 104.32 51.7 103.68 51.38 103.04C51.38 103.04 51.22 102.72 51.22 102.56C51.22 102.24 50.9 101.92 50.74 101.6C50.74 101.28 50.42 100.96 50.26 100.64C50.26 100.32 50.1 100.16 49.94 99.8401C49.78 99.5201 49.62 99.0401 49.3 98.7201C49.14 98.2401 48.82 97.7601 48.66 97.2801C44.82 89.2801 40.82 81.4401 36.82 73.6001C36.82 73.6001 36.66 73.2801 36.66 73.1201C36.34 72.4801 36.18 72.0001 35.86 71.3601C35.54 70.8801 35.38 70.2401 35.06 69.7601C35.06 69.4401 34.9 69.2801 34.74 68.9601C34.74 68.8001 34.58 68.4801 34.42 68.3201C33.14 65.9201 32.02 63.5201 30.74 60.9601C30.26 61.7601 30.1 62.5601 29.78 63.3601C25.46 76.6401 26.74 91.5201 33.3 103.84C33.3 103.84 33.3 104 33.3 104.16C33.94 105.28 34.42 106.24 35.22 107.36C40.98 116.8 49.78 124.48 60.02 128.8C60.5 128.96 60.82 129.12 61.3 129.28C61.62 129.28 61.94 129.44 62.26 129.6C62.58 129.6 62.9 129.76 63.22 129.92C63.38 129.92 63.7 130.08 63.86 130.24C64.02 130.24 64.34 130.24 64.66 130.4C65.3 130.56 65.94 130.72 66.58 130.88C67.54 131.2 68.5 131.36 69.46 131.52C69.78 131.52 70.26 131.52 70.58 131.68C71.06 131.68 71.38 131.68 71.86 132C73.78 132.16 75.7 132.64 77.62 132.64C79.54 132.8 81.62 132.8 83.54 132.64C85.62 132.64 87.54 132.32 89.62 132C90.1 132 90.42 131.84 90.9 131.84C91.22 131.84 91.7 131.68 92.02 131.68C92.98 131.52 93.94 131.2 94.9 131.04C95.54 130.88 96.18 130.72 96.82 130.56C97.14 130.56 97.3 130.4 97.62 130.24C97.62 130.24 97.94 130.24 98.1 130.24C98.74 129.92 99.54 129.76 100.18 129.44C100.5 129.28 100.98 129.12 101.3 128.96C107.22 126.4 112.5 122.88 117.14 118.56C123.7 112.48 128.5 104.64 131.38 96.1601C135.06 84.8001 134.9 72.1601 130.58 60.9601L130.42 61.2801Z" fill="#8B8B8B"/>
</svg>
