<svg width="80" height="80" viewBox="0 0 80 80" fill="none" xmlns="http://www.w3.org/2000/svg">
<rect width="80" height="80" rx="7.51515" fill="#B0FF45"/>
<path d="M45.8594 35.6125V22.4094H62.7411V35.6125H45.8594Z" stroke="#212121" stroke-width="3.25"/>
<path d="M54.3027 17.3312V22.4094" stroke="#212121" stroke-width="3.25"/>
<path d="M51.3379 26.9797V31.0422" stroke="#212121" stroke-width="3.25"/>
<path d="M57.2617 26.9797V31.0422" stroke="#212121" stroke-width="3.25"/>
<path d="M39.5525 32.8906H27.3203L24.5273 44.0625" stroke="#212121" stroke-width="3.25"/>
<path d="M49.8477 41.0156L50.6094 44.0625" stroke="#212121" stroke-width="3.25"/>
<path d="M21.8445 57.2656H17.2539V44.1092H57.8789V57.2656H53.2883" stroke="#212121" stroke-width="3.25" stroke-linecap="square"/>
<path d="M32.0098 57.2656H43.1227" stroke="#212121" stroke-width="3.25" stroke-linecap="square"/>
<path d="M21.8262 57.2656C21.8262 57.9325 21.9575 58.5928 22.2127 59.2089C22.4679 59.825 22.842 60.3849 23.3135 60.8564C23.7851 61.328 24.3449 61.702 24.961 61.9572C25.5771 62.2124 26.2374 62.3437 26.9043 62.3438C27.5712 62.3437 28.2315 62.2124 28.8476 61.9572C29.4637 61.702 30.0235 61.328 30.4951 60.8564C30.9666 60.3849 31.3407 59.825 31.5959 59.2089C31.8511 58.5928 31.9824 57.9325 31.9824 57.2656C31.9824 55.9188 31.4474 54.6272 30.4951 53.6748C29.5427 52.7225 28.2511 52.1875 26.9043 52.1875C25.5575 52.1875 24.2659 52.7225 23.3135 53.6748C22.3612 54.6272 21.8262 55.9188 21.8262 57.2656Z" stroke="#212121" stroke-width="3.25"/>
<path d="M43.1543 57.2656C43.1543 58.6124 43.6893 59.9041 44.6416 60.8564C45.594 61.8087 46.8856 62.3437 48.2324 62.3438C49.5792 62.3437 50.8709 61.8087 51.8232 60.8564C52.7755 59.9041 53.3105 58.6124 53.3105 57.2656C53.3105 55.9188 52.7755 54.6272 51.8232 53.6748C50.8709 52.7225 49.5792 52.1875 48.2324 52.1875C46.8856 52.1875 45.594 52.7225 44.6416 53.6748C43.6893 54.6272 43.1543 55.9188 43.1543 57.2656Z" stroke="#212121" stroke-width="3.25"/>
</svg>
