<svg width="60" height="60" viewBox="0 0 60 60" fill="none" xmlns="http://www.w3.org/2000/svg">
<rect width="60" height="60" rx="6" fill="#B0FF45"/>
<path fill-rule="evenodd" clip-rule="evenodd" d="M22.9447 17.7994L14.1877 21.596L14.1769 23.0365L14.1662 24.477L14.3239 24.5465L14.4817 24.6159L14.3242 24.62L14.1667 24.624V29.412V34.2H14.366H14.5653L12.644 36.1217L10.7227 38.0433V39.849V41.6547L13.106 44.0384L15.4894 46.422L17.852 44.0596L20.2147 41.6973V39.8493V38.0013L18.3143 36.1007L16.414 34.2H16.6133H16.8127V29.9115C16.8127 25.8445 16.8164 25.6245 16.8862 25.6511C16.9266 25.6666 17.8847 26.0797 19.0153 26.5691C20.6994 27.2981 21.0455 27.4615 20.9301 27.4726L20.7891 27.4863L20.8169 29.0266C20.8321 29.8738 20.8447 31.6443 20.8449 32.961L20.8454 35.355L26.2706 37.896C29.2544 39.2935 31.716 40.4309 31.7407 40.4235C31.7654 40.4161 34.2187 39.2726 37.1924 37.8825L42.5992 35.355L42.5999 31.4201L42.6007 27.4853L42.4766 27.4721C42.384 27.4623 43.2275 27.0804 45.8051 25.9651L49.2577 24.4711L49.2687 23.0427L49.2797 21.6144L40.5182 17.8167C35.6993 15.728 31.7443 14.0153 31.7292 14.0109C31.714 14.0065 27.761 15.7113 22.9447 17.7994ZM24.6156 19.9546C20.7414 21.6357 17.5633 23.0196 17.5532 23.03C17.527 23.0571 31.6869 29.1836 31.7409 29.1685C31.9539 29.1093 45.8691 23.0459 45.8452 23.0228C45.7977 22.9771 31.8407 16.9296 31.7437 16.9128C31.6975 16.9047 28.4898 18.2736 24.6156 19.9546ZM23.4646 31.1007C23.4808 32.5146 23.498 33.6744 23.5029 33.6781C23.5077 33.6817 25.3537 34.5476 27.605 35.6023C31.5773 37.4633 31.7022 37.5184 31.8291 37.4665C31.9011 37.4371 33.7584 36.5719 35.9564 35.544L39.9529 33.675L39.9538 31.0976C39.9546 28.6629 39.9506 28.5213 39.8812 28.5408C39.8408 28.552 38.0122 29.3409 35.8177 30.2937C33.6232 31.2465 31.7978 32.0346 31.7614 32.045C31.725 32.0555 29.86 31.2689 27.6171 30.297C25.3741 29.3251 23.5156 28.53 23.487 28.53C23.4461 28.53 23.4413 29.0723 23.4646 31.1007ZM14.4289 38.0748L13.3687 39.1356V39.8496V40.5636L14.4295 41.6238L15.4903 42.684L16.5294 41.6442L17.5687 40.6044V39.8484V39.0924L16.5289 38.0532L15.489 37.014L14.4289 38.0748Z" fill="#212121"/>
</svg>
