<svg width="60" height="60" viewBox="0 0 60 60" fill="none" xmlns="http://www.w3.org/2000/svg">
<rect width="60" height="60" rx="6" fill="#B0FF45"/>
<path fill-rule="evenodd" clip-rule="evenodd" d="M21.0114 12.3385C19.0194 12.6354 17.3363 14.0243 16.6826 15.9104C16.4665 16.5338 16.4124 16.8912 16.4124 17.694C16.4124 18.5018 16.4663 18.8534 16.6882 19.494C17.2403 21.0874 18.6309 22.4151 20.2341 22.8797C20.8754 23.0656 21.3403 23.123 21.9984 23.0976C22.879 23.0636 23.5237 22.8952 24.2922 22.4982C27.2214 20.9854 28.1171 17.2161 26.1856 14.5303C25.01 12.8954 22.9964 12.0424 21.0114 12.3385ZM21.1794 14.9846C20.6937 15.0938 20.2357 15.3535 19.8527 15.7369C19.2699 16.3203 19.0374 16.8785 19.0374 17.694C19.0374 18.5257 19.256 19.0479 19.8555 19.6486C20.2896 20.0835 20.6644 20.2977 21.1851 20.4081C21.5965 20.4954 22.2746 20.4667 22.6494 20.3461C23.4661 20.0833 24.1721 19.3791 24.4418 18.5583C24.538 18.2653 24.5534 18.1473 24.5542 17.694C24.5551 17.2283 24.542 17.1311 24.4392 16.8334C24.2833 16.3823 24.0812 16.062 23.7409 15.7265C23.1995 15.1928 22.6651 14.9621 21.9144 14.938C21.6104 14.9283 21.359 14.9442 21.1794 14.9846ZM20.8434 24.6095C19.963 24.6935 19.7152 24.7234 19.2943 24.7958C16.9647 25.1969 14.744 26.2021 12.7615 27.753L12.2782 28.131L12.2768 33.8325L12.2754 39.534H13.9134H15.5514V43.797V48.06H16.8744H18.1974V42.474V36.888H16.5594H14.9214V33.1551V29.4222L15.2679 29.1936C16.7256 28.232 18.3361 27.611 20.0454 27.3511C21.1869 27.1776 22.7008 27.1979 23.8464 27.402C25.4252 27.6834 26.9974 28.3081 28.2666 29.1584L28.6764 29.433L28.6874 30.9555L28.6984 32.478H29.9999H31.3014V30.2997V28.1213L30.8709 27.7853C29.3448 26.5945 28.0414 25.8856 26.3244 25.313C24.8189 24.8109 23.2974 24.5732 21.6878 24.5887C21.3042 24.5924 20.9242 24.6017 20.8434 24.6095ZM38.3784 31.612C36.365 31.9029 34.7946 33.4626 34.4723 35.4915L34.444 35.67H32.3897H30.3354V41.907V48.144H39.0294H47.7234V41.907V35.67H45.6662H43.609L43.5895 35.5755C43.468 34.9851 43.4207 34.8028 43.3181 34.5275C42.8593 33.2978 41.771 32.2428 40.5204 31.8157C39.8859 31.5989 39.0313 31.5177 38.3784 31.612ZM38.6139 34.2454C38.0728 34.3517 37.5027 34.7972 37.2651 35.2995C37.196 35.4455 37.1394 35.5886 37.1394 35.6175C37.1394 35.6587 37.5459 35.67 39.0322 35.67H40.9251L40.8965 35.5755C40.7757 35.1766 40.3353 34.6429 39.9569 34.437C39.5818 34.2328 39.0583 34.1582 38.6139 34.2454ZM25.3794 43.125V48.06H26.7024H28.0254V43.125V38.19H26.7024H25.3794V43.125ZM32.9394 41.907V45.498H39.0084H45.0774V41.907V38.316H39.0084H32.9394V41.907Z" fill="#212121"/>
</svg>
